<mxfile host="app.diagrams.net" modified="2021-01-15T20:12:12.326Z" agent="5.0 (Windows NT 10.0; Win64; x64) AppleWebKit/537.36 (KHTML, like Gecko) Chrome/87.0.4280.141 Safari/537.36" etag="dJg-XDUgYIkqu5ityFuO" version="14.2.3" type="github">
  <diagram name="Page-1" id="929967ad-93f9-6ef4-fab6-5d389245f69c">
    <mxGraphModel dx="1038" dy="548" grid="0" gridSize="10" guides="1" tooltips="1" connect="1" arrows="1" fold="1" page="1" pageScale="1.5" pageWidth="1169" pageHeight="826" background="none" math="0" shadow="0">
      <root>
        <mxCell id="0" style=";html=1;" />
        <mxCell id="1" style=";html=1;" parent="0" />
        <mxCell id="1672d66443f91eb5-23" value="Nice Price GmbH" style="text;strokeColor=none;fillColor=none;html=1;fontSize=24;fontStyle=1;verticalAlign=middle;align=center;" parent="1" vertex="1">
          <mxGeometry x="120" y="40" width="1510" height="40" as="geometry" />
        </mxCell>
        <mxCell id="8arygwyD2eR_vRSd_eBa-1" value="Person" style="swimlane;fontStyle=1;childLayout=stackLayout;horizontal=1;startSize=26;fillColor=none;horizontalStack=0;resizeParent=1;resizeParentMax=0;resizeLast=0;collapsible=1;marginBottom=0;" parent="1" vertex="1">
          <mxGeometry x="150" y="180" width="140" height="286" as="geometry" />
        </mxCell>
        <mxCell id="8arygwyD2eR_vRSd_eBa-2" value="PersNr : Int" style="text;strokeColor=none;align=left;verticalAlign=top;spacingLeft=4;spacingRight=4;overflow=hidden;rotatable=0;points=[[0,0.5],[1,0.5]];portConstraint=eastwest;fontStyle=4;" parent="8arygwyD2eR_vRSd_eBa-1" vertex="1">
          <mxGeometry y="26" width="140" height="26" as="geometry" />
        </mxCell>
        <mxCell id="8arygwyD2eR_vRSd_eBa-3" value="Vorname : String" style="text;strokeColor=none;fillColor=none;align=left;verticalAlign=top;spacingLeft=4;spacingRight=4;overflow=hidden;rotatable=0;points=[[0,0.5],[1,0.5]];portConstraint=eastwest;" parent="8arygwyD2eR_vRSd_eBa-1" vertex="1">
          <mxGeometry y="52" width="140" height="26" as="geometry" />
        </mxCell>
        <mxCell id="8arygwyD2eR_vRSd_eBa-4" value="Nachname : String" style="text;strokeColor=none;fillColor=none;align=left;verticalAlign=top;spacingLeft=4;spacingRight=4;overflow=hidden;rotatable=0;points=[[0,0.5],[1,0.5]];portConstraint=eastwest;" parent="8arygwyD2eR_vRSd_eBa-1" vertex="1">
          <mxGeometry y="78" width="140" height="26" as="geometry" />
        </mxCell>
        <mxCell id="8arygwyD2eR_vRSd_eBa-5" value="Strasse : String" style="text;strokeColor=none;fillColor=none;align=left;verticalAlign=top;spacingLeft=4;spacingRight=4;overflow=hidden;rotatable=0;points=[[0,0.5],[1,0.5]];portConstraint=eastwest;" parent="8arygwyD2eR_vRSd_eBa-1" vertex="1">
          <mxGeometry y="104" width="140" height="26" as="geometry" />
        </mxCell>
        <mxCell id="8arygwyD2eR_vRSd_eBa-6" value="HausNr : Int" style="text;strokeColor=none;fillColor=none;align=left;verticalAlign=top;spacingLeft=4;spacingRight=4;overflow=hidden;rotatable=0;points=[[0,0.5],[1,0.5]];portConstraint=eastwest;" parent="8arygwyD2eR_vRSd_eBa-1" vertex="1">
          <mxGeometry y="130" width="140" height="26" as="geometry" />
        </mxCell>
        <mxCell id="8arygwyD2eR_vRSd_eBa-7" value="PLZ : Int" style="text;strokeColor=none;fillColor=none;align=left;verticalAlign=top;spacingLeft=4;spacingRight=4;overflow=hidden;rotatable=0;points=[[0,0.5],[1,0.5]];portConstraint=eastwest;" parent="8arygwyD2eR_vRSd_eBa-1" vertex="1">
          <mxGeometry y="156" width="140" height="26" as="geometry" />
        </mxCell>
        <mxCell id="8arygwyD2eR_vRSd_eBa-8" value="Ort : String" style="text;strokeColor=none;fillColor=none;align=left;verticalAlign=top;spacingLeft=4;spacingRight=4;overflow=hidden;rotatable=0;points=[[0,0.5],[1,0.5]];portConstraint=eastwest;" parent="8arygwyD2eR_vRSd_eBa-1" vertex="1">
          <mxGeometry y="182" width="140" height="26" as="geometry" />
        </mxCell>
        <mxCell id="8arygwyD2eR_vRSd_eBa-9" value="GebDat : Date" style="text;strokeColor=none;fillColor=none;align=left;verticalAlign=top;spacingLeft=4;spacingRight=4;overflow=hidden;rotatable=0;points=[[0,0.5],[1,0.5]];portConstraint=eastwest;" parent="8arygwyD2eR_vRSd_eBa-1" vertex="1">
          <mxGeometry y="208" width="140" height="26" as="geometry" />
        </mxCell>
        <mxCell id="8arygwyD2eR_vRSd_eBa-11" value="Newsletter : Boolean" style="text;strokeColor=none;fillColor=none;align=left;verticalAlign=top;spacingLeft=4;spacingRight=4;overflow=hidden;rotatable=0;points=[[0,0.5],[1,0.5]];portConstraint=eastwest;" parent="8arygwyD2eR_vRSd_eBa-1" vertex="1">
          <mxGeometry y="234" width="140" height="26" as="geometry" />
        </mxCell>
        <mxCell id="8arygwyD2eR_vRSd_eBa-12" value="Bonuspunkte : Int" style="text;strokeColor=none;fillColor=none;align=left;verticalAlign=top;spacingLeft=4;spacingRight=4;overflow=hidden;rotatable=0;points=[[0,0.5],[1,0.5]];portConstraint=eastwest;" parent="8arygwyD2eR_vRSd_eBa-1" vertex="1">
          <mxGeometry y="260" width="140" height="26" as="geometry" />
        </mxCell>
        <mxCell id="8arygwyD2eR_vRSd_eBa-62" value="" style="edgeStyle=orthogonalEdgeStyle;rounded=0;orthogonalLoop=1;jettySize=auto;html=1;endArrow=block;endFill=0;horizontal=0;" parent="1" source="8arygwyD2eR_vRSd_eBa-58" edge="1">
          <mxGeometry relative="1" as="geometry">
            <mxPoint x="220" y="470" as="targetPoint" />
          </mxGeometry>
        </mxCell>
        <mxCell id="8arygwyD2eR_vRSd_eBa-58" value="Mitarbeiter&#xa;" style="swimlane;fontStyle=1;align=center;verticalAlign=top;childLayout=stackLayout;horizontal=1;startSize=26;horizontalStack=0;resizeParent=1;resizeParentMax=0;resizeLast=0;collapsible=1;marginBottom=0;fillColor=none;" parent="1" vertex="1">
          <mxGeometry x="140" y="570" width="160" height="130" as="geometry" />
        </mxCell>
        <mxCell id="8arygwyD2eR_vRSd_eBa-63" value="PersNr : Int" style="text;strokeColor=none;fillColor=none;align=left;verticalAlign=top;spacingLeft=4;spacingRight=4;overflow=hidden;rotatable=0;points=[[0,0.5],[1,0.5]];portConstraint=eastwest;fontStyle=5" parent="8arygwyD2eR_vRSd_eBa-58" vertex="1">
          <mxGeometry y="26" width="160" height="26" as="geometry" />
        </mxCell>
        <mxCell id="8arygwyD2eR_vRSd_eBa-59" value="EinDat : Date" style="text;strokeColor=none;fillColor=none;align=left;verticalAlign=top;spacingLeft=4;spacingRight=4;overflow=hidden;rotatable=0;points=[[0,0.5],[1,0.5]];portConstraint=eastwest;" parent="8arygwyD2eR_vRSd_eBa-58" vertex="1">
          <mxGeometry y="52" width="160" height="26" as="geometry" />
        </mxCell>
        <mxCell id="8arygwyD2eR_vRSd_eBa-61" value="Position : String" style="text;strokeColor=none;fillColor=none;align=left;verticalAlign=top;spacingLeft=4;spacingRight=4;overflow=hidden;rotatable=0;points=[[0,0.5],[1,0.5]];portConstraint=eastwest;" parent="8arygwyD2eR_vRSd_eBa-58" vertex="1">
          <mxGeometry y="78" width="160" height="26" as="geometry" />
        </mxCell>
        <mxCell id="qeWXeYSW7fMDMJwoB-ZM-3" value="Filiale : Int" style="text;strokeColor=none;fillColor=none;align=left;verticalAlign=top;spacingLeft=4;spacingRight=4;overflow=hidden;rotatable=0;points=[[0,0.5],[1,0.5]];portConstraint=eastwest;fontStyle=1" parent="8arygwyD2eR_vRSd_eBa-58" vertex="1">
          <mxGeometry y="104" width="160" height="26" as="geometry" />
        </mxCell>
        <mxCell id="8arygwyD2eR_vRSd_eBa-65" style="edgeStyle=orthogonalEdgeStyle;rounded=0;orthogonalLoop=1;jettySize=auto;html=1;exitX=0;exitY=0.5;exitDx=0;exitDy=0;entryX=0;entryY=0.5;entryDx=0;entryDy=0;startArrow=oval;startFill=1;endArrow=classic;endFill=1;" parent="1" source="8arygwyD2eR_vRSd_eBa-63" target="8arygwyD2eR_vRSd_eBa-2" edge="1">
          <mxGeometry relative="1" as="geometry" />
        </mxCell>
        <mxCell id="8arygwyD2eR_vRSd_eBa-66" value="Filiale" style="swimlane;fontStyle=1;childLayout=stackLayout;horizontal=1;startSize=26;fillColor=none;horizontalStack=0;resizeParent=1;resizeParentMax=0;resizeLast=0;collapsible=1;marginBottom=0;" parent="1" vertex="1">
          <mxGeometry x="460" y="546" width="140" height="182" as="geometry" />
        </mxCell>
        <mxCell id="8arygwyD2eR_vRSd_eBa-67" value="FilialNr : Int" style="text;strokeColor=none;fillColor=none;align=left;verticalAlign=top;spacingLeft=4;spacingRight=4;overflow=hidden;rotatable=0;points=[[0,0.5],[1,0.5]];portConstraint=eastwest;fontStyle=4" parent="8arygwyD2eR_vRSd_eBa-66" vertex="1">
          <mxGeometry y="26" width="140" height="26" as="geometry" />
        </mxCell>
        <mxCell id="8arygwyD2eR_vRSd_eBa-68" value="Filialleiter : Int" style="text;strokeColor=none;fillColor=none;align=left;verticalAlign=top;spacingLeft=4;spacingRight=4;overflow=hidden;rotatable=0;points=[[0,0.5],[1,0.5]];portConstraint=eastwest;fontStyle=1" parent="8arygwyD2eR_vRSd_eBa-66" vertex="1">
          <mxGeometry y="52" width="140" height="26" as="geometry" />
        </mxCell>
        <mxCell id="8arygwyD2eR_vRSd_eBa-69" value="Stadt : String" style="text;strokeColor=none;fillColor=none;align=left;verticalAlign=top;spacingLeft=4;spacingRight=4;overflow=hidden;rotatable=0;points=[[0,0.5],[1,0.5]];portConstraint=eastwest;" parent="8arygwyD2eR_vRSd_eBa-66" vertex="1">
          <mxGeometry y="78" width="140" height="26" as="geometry" />
        </mxCell>
        <mxCell id="8arygwyD2eR_vRSd_eBa-82" value="Region : String" style="text;strokeColor=none;fillColor=none;align=left;verticalAlign=top;spacingLeft=4;spacingRight=4;overflow=hidden;rotatable=0;points=[[0,0.5],[1,0.5]];portConstraint=eastwest;" parent="8arygwyD2eR_vRSd_eBa-66" vertex="1">
          <mxGeometry y="104" width="140" height="26" as="geometry" />
        </mxCell>
        <mxCell id="8arygwyD2eR_vRSd_eBa-83" value="Bundesland : String" style="text;strokeColor=none;fillColor=none;align=left;verticalAlign=top;spacingLeft=4;spacingRight=4;overflow=hidden;rotatable=0;points=[[0,0.5],[1,0.5]];portConstraint=eastwest;" parent="8arygwyD2eR_vRSd_eBa-66" vertex="1">
          <mxGeometry y="130" width="140" height="26" as="geometry" />
        </mxCell>
        <mxCell id="8arygwyD2eR_vRSd_eBa-84" value="Groesse : Int" style="text;strokeColor=none;fillColor=none;align=left;verticalAlign=top;spacingLeft=4;spacingRight=4;overflow=hidden;rotatable=0;points=[[0,0.5],[1,0.5]];portConstraint=eastwest;" parent="8arygwyD2eR_vRSd_eBa-66" vertex="1">
          <mxGeometry y="156" width="140" height="26" as="geometry" />
        </mxCell>
        <mxCell id="8arygwyD2eR_vRSd_eBa-85" value="Artikel" style="swimlane;fontStyle=1;childLayout=stackLayout;horizontal=1;startSize=26;fillColor=none;horizontalStack=0;resizeParent=1;resizeParentMax=0;resizeLast=0;collapsible=1;marginBottom=0;" parent="1" vertex="1">
          <mxGeometry x="961" y="709" width="140" height="130" as="geometry" />
        </mxCell>
        <mxCell id="8arygwyD2eR_vRSd_eBa-86" value="ArtNr : Int" style="text;strokeColor=none;fillColor=none;align=left;verticalAlign=top;spacingLeft=4;spacingRight=4;overflow=hidden;rotatable=0;points=[[0,0.5],[1,0.5]];portConstraint=eastwest;fontStyle=4" parent="8arygwyD2eR_vRSd_eBa-85" vertex="1">
          <mxGeometry y="26" width="140" height="26" as="geometry" />
        </mxCell>
        <mxCell id="8arygwyD2eR_vRSd_eBa-87" value="KurzBez : String" style="text;strokeColor=none;fillColor=none;align=left;verticalAlign=top;spacingLeft=4;spacingRight=4;overflow=hidden;rotatable=0;points=[[0,0.5],[1,0.5]];portConstraint=eastwest;" parent="8arygwyD2eR_vRSd_eBa-85" vertex="1">
          <mxGeometry y="52" width="140" height="26" as="geometry" />
        </mxCell>
        <mxCell id="8arygwyD2eR_vRSd_eBa-88" value="LangBez : String" style="text;strokeColor=none;fillColor=none;align=left;verticalAlign=top;spacingLeft=4;spacingRight=4;overflow=hidden;rotatable=0;points=[[0,0.5],[1,0.5]];portConstraint=eastwest;" parent="8arygwyD2eR_vRSd_eBa-85" vertex="1">
          <mxGeometry y="78" width="140" height="26" as="geometry" />
        </mxCell>
        <mxCell id="8arygwyD2eR_vRSd_eBa-89" value="PrGrpID : Int&#xa;" style="text;strokeColor=none;fillColor=none;align=left;verticalAlign=top;spacingLeft=4;spacingRight=4;overflow=hidden;rotatable=0;points=[[0,0.5],[1,0.5]];portConstraint=eastwest;fontStyle=1" parent="8arygwyD2eR_vRSd_eBa-85" vertex="1">
          <mxGeometry y="104" width="140" height="26" as="geometry" />
        </mxCell>
        <mxCell id="8arygwyD2eR_vRSd_eBa-93" value="1" style="text;html=1;resizable=0;autosize=1;align=center;verticalAlign=middle;points=[];fillColor=none;strokeColor=none;rounded=0;" parent="1" vertex="1">
          <mxGeometry x="306" y="589" width="16" height="18" as="geometry" />
        </mxCell>
        <mxCell id="8arygwyD2eR_vRSd_eBa-94" value="0..*" style="text;html=1;resizable=0;autosize=1;align=center;verticalAlign=middle;points=[];fillColor=none;strokeColor=none;rounded=0;" parent="1" vertex="1">
          <mxGeometry x="428" y="589" width="28" height="18" as="geometry" />
        </mxCell>
        <mxCell id="8arygwyD2eR_vRSd_eBa-98" value="" style="endArrow=openThin;html=1;edgeStyle=orthogonalEdgeStyle;startArrow=oval;startFill=1;endFill=0;" parent="1" edge="1">
          <mxGeometry relative="1" as="geometry">
            <mxPoint x="300" y="611" as="sourcePoint" />
            <mxPoint x="460" y="611" as="targetPoint" />
          </mxGeometry>
        </mxCell>
        <mxCell id="8arygwyD2eR_vRSd_eBa-101" value="ist Leiter von&amp;gt;" style="text;html=1;resizable=0;autosize=1;align=center;verticalAlign=middle;points=[];fillColor=none;strokeColor=none;rounded=0;" parent="1" vertex="1">
          <mxGeometry x="336" y="586" width="85" height="18" as="geometry" />
        </mxCell>
        <mxCell id="8arygwyD2eR_vRSd_eBa-102" value="&lt;span style=&quot;font-size: 11px ; background-color: rgb(255 , 255 , 255)&quot;&gt;&amp;nbsp; &amp;lt; Kann sein&lt;/span&gt;" style="text;html=1;resizable=0;autosize=1;align=center;verticalAlign=middle;points=[];fillColor=none;strokeColor=none;rounded=0;horizontal=0;" parent="1" vertex="1">
          <mxGeometry x="173" y="521" width="75" height="18" as="geometry" />
        </mxCell>
        <mxCell id="trAWZlxjlA6zEB3Ep_1w-1" value="Produktfamilie" style="swimlane;fontStyle=1;childLayout=stackLayout;horizontal=1;startSize=26;fillColor=none;horizontalStack=0;resizeParent=1;resizeParentMax=0;resizeLast=0;collapsible=1;marginBottom=0;" parent="1" vertex="1">
          <mxGeometry x="649" y="169" width="140" height="78" as="geometry" />
        </mxCell>
        <mxCell id="trAWZlxjlA6zEB3Ep_1w-2" value="PrFamID : Int" style="text;strokeColor=none;fillColor=none;align=left;verticalAlign=top;spacingLeft=4;spacingRight=4;overflow=hidden;rotatable=0;points=[[0,0.5],[1,0.5]];portConstraint=eastwest;fontStyle=4" parent="trAWZlxjlA6zEB3Ep_1w-1" vertex="1">
          <mxGeometry y="26" width="140" height="26" as="geometry" />
        </mxCell>
        <mxCell id="trAWZlxjlA6zEB3Ep_1w-4" value="Bezeichnung : String" style="text;strokeColor=none;fillColor=none;align=left;verticalAlign=top;spacingLeft=4;spacingRight=4;overflow=hidden;rotatable=0;points=[[0,0.5],[1,0.5]];portConstraint=eastwest;" parent="trAWZlxjlA6zEB3Ep_1w-1" vertex="1">
          <mxGeometry y="52" width="140" height="26" as="geometry" />
        </mxCell>
        <mxCell id="qeWXeYSW7fMDMJwoB-ZM-55" style="edgeStyle=orthogonalEdgeStyle;rounded=0;orthogonalLoop=1;jettySize=auto;html=1;entryX=0;entryY=0.5;entryDx=0;entryDy=0;startArrow=diamondThin;startFill=0;strokeWidth=1;endSize=8;startSize=14;" parent="1" source="trAWZlxjlA6zEB3Ep_1w-9" target="qeWXeYSW7fMDMJwoB-ZM-48" edge="1">
          <mxGeometry relative="1" as="geometry">
            <Array as="points">
              <mxPoint x="1028" y="484" />
              <mxPoint x="941" y="484" />
              <mxPoint x="941" y="588" />
            </Array>
          </mxGeometry>
        </mxCell>
        <mxCell id="trAWZlxjlA6zEB3Ep_1w-9" value="Produktkategorie" style="swimlane;fontStyle=1;childLayout=stackLayout;horizontal=1;startSize=26;fillColor=none;horizontalStack=0;resizeParent=1;resizeParentMax=0;resizeLast=0;collapsible=1;marginBottom=0;" parent="1" vertex="1">
          <mxGeometry x="958" y="304" width="140" height="103" as="geometry" />
        </mxCell>
        <mxCell id="trAWZlxjlA6zEB3Ep_1w-10" value="PrKatID : Int" style="text;strokeColor=none;fillColor=none;align=left;verticalAlign=top;spacingLeft=4;spacingRight=4;overflow=hidden;rotatable=0;points=[[0,0.5],[1,0.5]];portConstraint=eastwest;fontStyle=4" parent="trAWZlxjlA6zEB3Ep_1w-9" vertex="1">
          <mxGeometry y="26" width="140" height="26" as="geometry" />
        </mxCell>
        <mxCell id="trAWZlxjlA6zEB3Ep_1w-11" value="Bezeichnung : String" style="text;strokeColor=none;fillColor=none;align=left;verticalAlign=top;spacingLeft=4;spacingRight=4;overflow=hidden;rotatable=0;points=[[0,0.5],[1,0.5]];portConstraint=eastwest;" parent="trAWZlxjlA6zEB3Ep_1w-9" vertex="1">
          <mxGeometry y="52" width="140" height="26" as="geometry" />
        </mxCell>
        <mxCell id="qeWXeYSW7fMDMJwoB-ZM-44" value="Oberfamilie : Int" style="text;strokeColor=none;fillColor=none;align=left;verticalAlign=top;spacingLeft=4;spacingRight=4;overflow=hidden;rotatable=0;points=[[0,0.5],[1,0.5]];portConstraint=eastwest;fontStyle=1" parent="trAWZlxjlA6zEB3Ep_1w-9" vertex="1">
          <mxGeometry y="78" width="140" height="25" as="geometry" />
        </mxCell>
        <mxCell id="trAWZlxjlA6zEB3Ep_1w-29" value="0..*" style="text;html=1;resizable=0;autosize=1;align=center;verticalAlign=middle;points=[];fillColor=none;strokeColor=none;rounded=0;" parent="1" vertex="1">
          <mxGeometry x="927" y="368" width="28" height="18" as="geometry" />
        </mxCell>
        <mxCell id="trAWZlxjlA6zEB3Ep_1w-40" value="Lieferant" style="swimlane;fontStyle=1;childLayout=stackLayout;horizontal=1;startSize=26;fillColor=none;horizontalStack=0;resizeParent=1;resizeParentMax=0;resizeLast=0;collapsible=1;marginBottom=0;" parent="1" vertex="1">
          <mxGeometry x="1383" y="699" width="154" height="260" as="geometry" />
        </mxCell>
        <mxCell id="qeWXeYSW7fMDMJwoB-ZM-20" value="LieferantenID : Int" style="text;strokeColor=none;fillColor=none;align=left;verticalAlign=top;spacingLeft=4;spacingRight=4;overflow=hidden;rotatable=0;points=[[0,0.5],[1,0.5]];portConstraint=eastwest;fontStyle=4" parent="trAWZlxjlA6zEB3Ep_1w-40" vertex="1">
          <mxGeometry y="26" width="154" height="26" as="geometry" />
        </mxCell>
        <mxCell id="qeWXeYSW7fMDMJwoB-ZM-19" value="LiefName : String" style="text;strokeColor=none;fillColor=none;align=left;verticalAlign=top;spacingLeft=4;spacingRight=4;overflow=hidden;rotatable=0;points=[[0,0.5],[1,0.5]];portConstraint=eastwest;" parent="trAWZlxjlA6zEB3Ep_1w-40" vertex="1">
          <mxGeometry y="52" width="154" height="26" as="geometry" />
        </mxCell>
        <mxCell id="trAWZlxjlA6zEB3Ep_1w-49" value="AnsprPtnrVN : String" style="text;strokeColor=none;fillColor=none;align=left;verticalAlign=top;spacingLeft=4;spacingRight=4;overflow=hidden;rotatable=0;points=[[0,0.5],[1,0.5]];portConstraint=eastwest;" parent="trAWZlxjlA6zEB3Ep_1w-40" vertex="1">
          <mxGeometry y="78" width="154" height="26" as="geometry" />
        </mxCell>
        <mxCell id="trAWZlxjlA6zEB3Ep_1w-50" value="AnsprPtnrNN : String" style="text;strokeColor=none;fillColor=none;align=left;verticalAlign=top;spacingLeft=4;spacingRight=4;overflow=hidden;rotatable=0;points=[[0,0.5],[1,0.5]];portConstraint=eastwest;" parent="trAWZlxjlA6zEB3Ep_1w-40" vertex="1">
          <mxGeometry y="104" width="154" height="26" as="geometry" />
        </mxCell>
        <mxCell id="trAWZlxjlA6zEB3Ep_1w-51" value="Strasse : String" style="text;strokeColor=none;fillColor=none;align=left;verticalAlign=top;spacingLeft=4;spacingRight=4;overflow=hidden;rotatable=0;points=[[0,0.5],[1,0.5]];portConstraint=eastwest;" parent="trAWZlxjlA6zEB3Ep_1w-40" vertex="1">
          <mxGeometry y="130" width="154" height="26" as="geometry" />
        </mxCell>
        <mxCell id="trAWZlxjlA6zEB3Ep_1w-52" value="HausNr : Int" style="text;strokeColor=none;fillColor=none;align=left;verticalAlign=top;spacingLeft=4;spacingRight=4;overflow=hidden;rotatable=0;points=[[0,0.5],[1,0.5]];portConstraint=eastwest;" parent="trAWZlxjlA6zEB3Ep_1w-40" vertex="1">
          <mxGeometry y="156" width="154" height="26" as="geometry" />
        </mxCell>
        <mxCell id="trAWZlxjlA6zEB3Ep_1w-53" value="PLZ : Int" style="text;strokeColor=none;fillColor=none;align=left;verticalAlign=top;spacingLeft=4;spacingRight=4;overflow=hidden;rotatable=0;points=[[0,0.5],[1,0.5]];portConstraint=eastwest;" parent="trAWZlxjlA6zEB3Ep_1w-40" vertex="1">
          <mxGeometry y="182" width="154" height="26" as="geometry" />
        </mxCell>
        <mxCell id="trAWZlxjlA6zEB3Ep_1w-54" value="Ort : String" style="text;strokeColor=none;fillColor=none;align=left;verticalAlign=top;spacingLeft=4;spacingRight=4;overflow=hidden;rotatable=0;points=[[0,0.5],[1,0.5]];portConstraint=eastwest;" parent="trAWZlxjlA6zEB3Ep_1w-40" vertex="1">
          <mxGeometry y="208" width="154" height="26" as="geometry" />
        </mxCell>
        <mxCell id="_aKagx4z53fhF-iL35Nk-2" value="Liefertermin : Werktag" style="text;strokeColor=none;fillColor=none;align=left;verticalAlign=top;spacingLeft=4;spacingRight=4;overflow=hidden;rotatable=0;points=[[0,0.5],[1,0.5]];portConstraint=eastwest;" vertex="1" parent="trAWZlxjlA6zEB3Ep_1w-40">
          <mxGeometry y="234" width="154" height="26" as="geometry" />
        </mxCell>
        <mxCell id="trAWZlxjlA6zEB3Ep_1w-44" value="Bon" style="swimlane;fontStyle=1;childLayout=stackLayout;horizontal=1;startSize=26;fillColor=none;horizontalStack=0;resizeParent=1;resizeParentMax=0;resizeLast=0;collapsible=1;marginBottom=0;" parent="1" vertex="1">
          <mxGeometry x="449" y="856" width="140" height="104" as="geometry" />
        </mxCell>
        <mxCell id="trAWZlxjlA6zEB3Ep_1w-45" value="+ field: type" style="text;strokeColor=none;fillColor=none;align=left;verticalAlign=top;spacingLeft=4;spacingRight=4;overflow=hidden;rotatable=0;points=[[0,0.5],[1,0.5]];portConstraint=eastwest;" parent="trAWZlxjlA6zEB3Ep_1w-44" vertex="1">
          <mxGeometry y="26" width="140" height="26" as="geometry" />
        </mxCell>
        <mxCell id="trAWZlxjlA6zEB3Ep_1w-46" value="+ field: type" style="text;strokeColor=none;fillColor=none;align=left;verticalAlign=top;spacingLeft=4;spacingRight=4;overflow=hidden;rotatable=0;points=[[0,0.5],[1,0.5]];portConstraint=eastwest;" parent="trAWZlxjlA6zEB3Ep_1w-44" vertex="1">
          <mxGeometry y="52" width="140" height="26" as="geometry" />
        </mxCell>
        <mxCell id="trAWZlxjlA6zEB3Ep_1w-47" value="+ field: type" style="text;strokeColor=none;fillColor=none;align=left;verticalAlign=top;spacingLeft=4;spacingRight=4;overflow=hidden;rotatable=0;points=[[0,0.5],[1,0.5]];portConstraint=eastwest;" parent="trAWZlxjlA6zEB3Ep_1w-44" vertex="1">
          <mxGeometry y="78" width="140" height="26" as="geometry" />
        </mxCell>
        <mxCell id="trAWZlxjlA6zEB3Ep_1w-58" value="" style="html=1;verticalAlign=bottom;endArrow=block;exitX=-0.017;exitY=0.085;exitDx=0;exitDy=0;exitPerimeter=0;entryX=1.011;entryY=0.074;entryDx=0;entryDy=0;entryPerimeter=0;" parent="1" source="trAWZlxjlA6zEB3Ep_1w-40" target="8arygwyD2eR_vRSd_eBa-85" edge="1">
          <mxGeometry width="80" relative="1" as="geometry">
            <mxPoint x="1348" y="940" as="sourcePoint" />
            <mxPoint x="1428" y="940" as="targetPoint" />
          </mxGeometry>
        </mxCell>
        <mxCell id="trAWZlxjlA6zEB3Ep_1w-59" value="1..*" style="text;html=1;resizable=0;autosize=1;align=center;verticalAlign=middle;points=[];fillColor=none;strokeColor=none;rounded=0;" parent="1" vertex="1">
          <mxGeometry x="1342" y="691" width="28" height="18" as="geometry" />
        </mxCell>
        <mxCell id="trAWZlxjlA6zEB3Ep_1w-60" value="1..*" style="text;html=1;align=center;verticalAlign=middle;resizable=0;points=[];autosize=1;" parent="1" vertex="1">
          <mxGeometry x="1107" y="696" width="28" height="18" as="geometry" />
        </mxCell>
        <mxCell id="_aKagx4z53fhF-iL35Nk-1" style="edgeStyle=orthogonalEdgeStyle;rounded=0;orthogonalLoop=1;jettySize=auto;html=1;" edge="1" parent="1" source="trAWZlxjlA6zEB3Ep_1w-62">
          <mxGeometry relative="1" as="geometry">
            <mxPoint x="1248" y="721.4000244140625" as="targetPoint" />
          </mxGeometry>
        </mxCell>
        <mxCell id="trAWZlxjlA6zEB3Ep_1w-62" value="Lieferung" style="swimlane;fontStyle=1;childLayout=stackLayout;horizontal=1;startSize=26;fillColor=none;horizontalStack=0;resizeParent=1;resizeParentMax=0;resizeLast=0;collapsible=1;marginBottom=0;" parent="1" vertex="1">
          <mxGeometry x="1178" y="541" width="140" height="104" as="geometry" />
        </mxCell>
        <mxCell id="trAWZlxjlA6zEB3Ep_1w-63" value="+ field: type" style="text;strokeColor=none;fillColor=none;align=left;verticalAlign=top;spacingLeft=4;spacingRight=4;overflow=hidden;rotatable=0;points=[[0,0.5],[1,0.5]];portConstraint=eastwest;" parent="trAWZlxjlA6zEB3Ep_1w-62" vertex="1">
          <mxGeometry y="26" width="140" height="26" as="geometry" />
        </mxCell>
        <mxCell id="trAWZlxjlA6zEB3Ep_1w-64" value="+ field: type" style="text;strokeColor=none;fillColor=none;align=left;verticalAlign=top;spacingLeft=4;spacingRight=4;overflow=hidden;rotatable=0;points=[[0,0.5],[1,0.5]];portConstraint=eastwest;" parent="trAWZlxjlA6zEB3Ep_1w-62" vertex="1">
          <mxGeometry y="52" width="140" height="26" as="geometry" />
        </mxCell>
        <mxCell id="trAWZlxjlA6zEB3Ep_1w-65" value="+ field: type" style="text;strokeColor=none;fillColor=none;align=left;verticalAlign=top;spacingLeft=4;spacingRight=4;overflow=hidden;rotatable=0;points=[[0,0.5],[1,0.5]];portConstraint=eastwest;" parent="trAWZlxjlA6zEB3Ep_1w-62" vertex="1">
          <mxGeometry y="78" width="140" height="26" as="geometry" />
        </mxCell>
        <mxCell id="qeWXeYSW7fMDMJwoB-ZM-4" style="edgeStyle=orthogonalEdgeStyle;rounded=0;orthogonalLoop=1;jettySize=auto;html=1;entryX=1;entryY=0.5;entryDx=0;entryDy=0;exitX=0;exitY=0.5;exitDx=0;exitDy=0;startArrow=oval;startFill=1;" parent="1" source="qeWXeYSW7fMDMJwoB-ZM-3" target="8arygwyD2eR_vRSd_eBa-67" edge="1">
          <mxGeometry relative="1" as="geometry">
            <Array as="points">
              <mxPoint x="100" y="687" />
              <mxPoint x="100" y="758" />
              <mxPoint x="635" y="758" />
              <mxPoint x="635" y="585" />
            </Array>
          </mxGeometry>
        </mxCell>
        <mxCell id="qeWXeYSW7fMDMJwoB-ZM-5" value="arbeitet in &amp;gt;" style="text;html=1;align=center;verticalAlign=middle;resizable=0;points=[];autosize=1;" parent="1" vertex="1">
          <mxGeometry x="314" y="738" width="73" height="18" as="geometry" />
        </mxCell>
        <mxCell id="qeWXeYSW7fMDMJwoB-ZM-6" value="*" style="text;html=1;align=center;verticalAlign=middle;resizable=0;points=[];autosize=1;" parent="1" vertex="1">
          <mxGeometry x="116" y="668" width="15" height="18" as="geometry" />
        </mxCell>
        <mxCell id="qeWXeYSW7fMDMJwoB-ZM-7" value="1" style="text;html=1;align=center;verticalAlign=middle;resizable=0;points=[];autosize=1;" parent="1" vertex="1">
          <mxGeometry x="605" y="561" width="16" height="18" as="geometry" />
        </mxCell>
        <mxCell id="qeWXeYSW7fMDMJwoB-ZM-8" value="Angebot" style="swimlane;fontStyle=1;childLayout=stackLayout;horizontal=1;startSize=26;fillColor=none;horizontalStack=0;resizeParent=1;resizeParentMax=0;resizeLast=0;collapsible=1;marginBottom=0;" parent="1" vertex="1">
          <mxGeometry x="658" y="709" width="140" height="182" as="geometry" />
        </mxCell>
        <mxCell id="qeWXeYSW7fMDMJwoB-ZM-9" value="ProduktID : Int" style="text;strokeColor=none;fillColor=none;align=left;verticalAlign=top;spacingLeft=4;spacingRight=4;overflow=hidden;rotatable=0;points=[[0,0.5],[1,0.5]];portConstraint=eastwest;fontStyle=5" parent="qeWXeYSW7fMDMJwoB-ZM-8" vertex="1">
          <mxGeometry y="26" width="140" height="26" as="geometry" />
        </mxCell>
        <mxCell id="qeWXeYSW7fMDMJwoB-ZM-10" value="Anzahl : Int = 1" style="text;strokeColor=none;fillColor=none;align=left;verticalAlign=top;spacingLeft=4;spacingRight=4;overflow=hidden;rotatable=0;points=[[0,0.5],[1,0.5]];portConstraint=eastwest;fontStyle=4" parent="qeWXeYSW7fMDMJwoB-ZM-8" vertex="1">
          <mxGeometry y="52" width="140" height="26" as="geometry" />
        </mxCell>
        <mxCell id="qeWXeYSW7fMDMJwoB-ZM-11" value="Einzelwert : Int " style="text;strokeColor=none;fillColor=none;align=left;verticalAlign=top;spacingLeft=4;spacingRight=4;overflow=hidden;rotatable=0;points=[[0,0.5],[1,0.5]];portConstraint=eastwest;fontStyle=4" parent="qeWXeYSW7fMDMJwoB-ZM-8" vertex="1">
          <mxGeometry y="78" width="140" height="26" as="geometry" />
        </mxCell>
        <mxCell id="qeWXeYSW7fMDMJwoB-ZM-21" value="Einheit: Einheit" style="text;strokeColor=none;fillColor=none;align=left;verticalAlign=top;spacingLeft=4;spacingRight=4;overflow=hidden;rotatable=0;points=[[0,0.5],[1,0.5]];portConstraint=eastwest;fontStyle=4" parent="qeWXeYSW7fMDMJwoB-ZM-8" vertex="1">
          <mxGeometry y="104" width="140" height="26" as="geometry" />
        </mxCell>
        <mxCell id="qeWXeYSW7fMDMJwoB-ZM-22" value="EinPreis : Decimal (8,4)" style="text;strokeColor=none;fillColor=none;align=left;verticalAlign=top;spacingLeft=4;spacingRight=4;overflow=hidden;rotatable=0;points=[[0,0.5],[1,0.5]];portConstraint=eastwest;" parent="qeWXeYSW7fMDMJwoB-ZM-8" vertex="1">
          <mxGeometry y="130" width="140" height="26" as="geometry" />
        </mxCell>
        <mxCell id="qeWXeYSW7fMDMJwoB-ZM-23" value="Auspreis : Decimal (6,2)" style="text;strokeColor=none;fillColor=none;align=left;verticalAlign=top;spacingLeft=4;spacingRight=4;overflow=hidden;rotatable=0;points=[[0,0.5],[1,0.5]];portConstraint=eastwest;" parent="qeWXeYSW7fMDMJwoB-ZM-8" vertex="1">
          <mxGeometry y="156" width="140" height="26" as="geometry" />
        </mxCell>
        <mxCell id="qeWXeYSW7fMDMJwoB-ZM-12" style="edgeStyle=orthogonalEdgeStyle;rounded=0;orthogonalLoop=1;jettySize=auto;html=1;exitX=0;exitY=0.5;exitDx=0;exitDy=0;entryX=1;entryY=0.5;entryDx=0;entryDy=0;startArrow=oval;startFill=1;" parent="1" source="8arygwyD2eR_vRSd_eBa-86" target="qeWXeYSW7fMDMJwoB-ZM-9" edge="1">
          <mxGeometry relative="1" as="geometry" />
        </mxCell>
        <mxCell id="qeWXeYSW7fMDMJwoB-ZM-13" value="&amp;lt; wird verkauft als" style="text;html=1;align=center;verticalAlign=middle;resizable=0;points=[];autosize=1;" parent="1" vertex="1">
          <mxGeometry x="826" y="717" width="107" height="18" as="geometry" />
        </mxCell>
        <mxCell id="qeWXeYSW7fMDMJwoB-ZM-14" value="1..*" style="text;html=1;align=center;verticalAlign=middle;resizable=0;points=[];autosize=1;" parent="1" vertex="1">
          <mxGeometry x="933" y="720" width="28" height="18" as="geometry" />
        </mxCell>
        <mxCell id="qeWXeYSW7fMDMJwoB-ZM-15" value="1..*" style="text;html=1;align=center;verticalAlign=middle;resizable=0;points=[];autosize=1;" parent="1" vertex="1">
          <mxGeometry x="802" y="720" width="28" height="18" as="geometry" />
        </mxCell>
        <mxCell id="qeWXeYSW7fMDMJwoB-ZM-28" style="edgeStyle=orthogonalEdgeStyle;rounded=0;orthogonalLoop=1;jettySize=auto;html=1;exitX=1;exitY=0.75;exitDx=0;exitDy=0;entryX=1;entryY=0.5;entryDx=0;entryDy=0;startArrow=oval;startFill=1;" parent="1" source="qeWXeYSW7fMDMJwoB-ZM-24" target="qeWXeYSW7fMDMJwoB-ZM-21" edge="1">
          <mxGeometry relative="1" as="geometry" />
        </mxCell>
        <mxCell id="qeWXeYSW7fMDMJwoB-ZM-24" value="&lt;&lt;Enumeration&gt;&gt;&#xa;Einheit" style="swimlane;fontStyle=0;childLayout=stackLayout;horizontal=1;startSize=26;fillColor=none;horizontalStack=0;resizeParent=1;resizeParentMax=0;resizeLast=0;collapsible=1;marginBottom=0;" parent="1" vertex="1">
          <mxGeometry x="658" y="974" width="138" height="111" as="geometry" />
        </mxCell>
        <mxCell id="qeWXeYSW7fMDMJwoB-ZM-26" value="ml&#xa;l&#xa;g&#xa;kg&#xa;Stueck" style="text;strokeColor=none;fillColor=none;align=left;verticalAlign=top;spacingLeft=4;spacingRight=4;overflow=hidden;rotatable=0;points=[[0,0.5],[1,0.5]];portConstraint=eastwest;" parent="qeWXeYSW7fMDMJwoB-ZM-24" vertex="1">
          <mxGeometry y="26" width="138" height="85" as="geometry" />
        </mxCell>
        <mxCell id="trAWZlxjlA6zEB3Ep_1w-25" value="1" style="endArrow=open;html=1;endSize=12;startArrow=diamondThin;startSize=14;startFill=0;edgeStyle=orthogonalEdgeStyle;align=left;verticalAlign=bottom;horizontal=1;entryX=0;entryY=0.5;entryDx=0;entryDy=0;exitX=0.506;exitY=1.038;exitDx=0;exitDy=0;exitPerimeter=0;" parent="1" source="trAWZlxjlA6zEB3Ep_1w-4" target="qeWXeYSW7fMDMJwoB-ZM-44" edge="1">
          <mxGeometry x="-0.8757" y="12" relative="1" as="geometry">
            <mxPoint x="1070" y="302" as="sourcePoint" />
            <mxPoint x="720" y="360" as="targetPoint" />
            <mxPoint as="offset" />
          </mxGeometry>
        </mxCell>
        <mxCell id="trAWZlxjlA6zEB3Ep_1w-26" value="&amp;lt; Gehört zu" style="edgeLabel;html=1;align=center;verticalAlign=middle;resizable=0;points=[];horizontal=0;rotation=90;" parent="trAWZlxjlA6zEB3Ep_1w-25" vertex="1" connectable="0">
          <mxGeometry x="0.1175" relative="1" as="geometry">
            <mxPoint x="-3.29" y="-11.5" as="offset" />
          </mxGeometry>
        </mxCell>
        <mxCell id="qeWXeYSW7fMDMJwoB-ZM-59" style="edgeStyle=orthogonalEdgeStyle;rounded=0;orthogonalLoop=1;jettySize=auto;html=1;entryX=0.5;entryY=0;entryDx=0;entryDy=0;startArrow=diamondThin;startFill=0;startSize=14;endSize=8;strokeWidth=1;" parent="1" source="qeWXeYSW7fMDMJwoB-ZM-45" target="8arygwyD2eR_vRSd_eBa-85" edge="1">
          <mxGeometry relative="1" as="geometry" />
        </mxCell>
        <mxCell id="qeWXeYSW7fMDMJwoB-ZM-45" value="Produktgruppe" style="swimlane;fontStyle=1;childLayout=stackLayout;horizontal=1;startSize=26;fillColor=none;horizontalStack=0;resizeParent=1;resizeParentMax=0;resizeLast=0;collapsible=1;marginBottom=0;" parent="1" vertex="1">
          <mxGeometry x="961" y="497" width="140" height="104" as="geometry" />
        </mxCell>
        <mxCell id="qeWXeYSW7fMDMJwoB-ZM-46" value="PrGrpID : Int" style="text;strokeColor=none;fillColor=none;align=left;verticalAlign=top;spacingLeft=4;spacingRight=4;overflow=hidden;rotatable=0;points=[[0,0.5],[1,0.5]];portConstraint=eastwest;fontStyle=4" parent="qeWXeYSW7fMDMJwoB-ZM-45" vertex="1">
          <mxGeometry y="26" width="140" height="26" as="geometry" />
        </mxCell>
        <mxCell id="qeWXeYSW7fMDMJwoB-ZM-47" value="Bezeichnung : String" style="text;strokeColor=none;fillColor=none;align=left;verticalAlign=top;spacingLeft=4;spacingRight=4;overflow=hidden;rotatable=0;points=[[0,0.5],[1,0.5]];portConstraint=eastwest;" parent="qeWXeYSW7fMDMJwoB-ZM-45" vertex="1">
          <mxGeometry y="52" width="140" height="26" as="geometry" />
        </mxCell>
        <mxCell id="qeWXeYSW7fMDMJwoB-ZM-48" value="Oberkategorie : Int" style="text;strokeColor=none;fillColor=none;align=left;verticalAlign=top;spacingLeft=4;spacingRight=4;overflow=hidden;rotatable=0;points=[[0,0.5],[1,0.5]];portConstraint=eastwest;fontStyle=1" parent="qeWXeYSW7fMDMJwoB-ZM-45" vertex="1">
          <mxGeometry y="78" width="140" height="26" as="geometry" />
        </mxCell>
        <mxCell id="qeWXeYSW7fMDMJwoB-ZM-56" value="Gehört zu &amp;gt;" style="text;html=1;align=center;verticalAlign=middle;resizable=0;points=[];autosize=1;" parent="1" vertex="1">
          <mxGeometry x="937" y="461" width="73" height="18" as="geometry" />
        </mxCell>
        <mxCell id="qeWXeYSW7fMDMJwoB-ZM-57" value="1" style="text;html=1;align=center;verticalAlign=middle;resizable=0;points=[];autosize=1;" parent="1" vertex="1">
          <mxGeometry x="1007" y="406" width="16" height="18" as="geometry" />
        </mxCell>
        <mxCell id="qeWXeYSW7fMDMJwoB-ZM-58" value="0..*" style="text;html=1;align=center;verticalAlign=middle;resizable=0;points=[];autosize=1;" parent="1" vertex="1">
          <mxGeometry x="914" y="586" width="28" height="18" as="geometry" />
        </mxCell>
        <mxCell id="qeWXeYSW7fMDMJwoB-ZM-60" value="Gehört zu &amp;gt;" style="text;html=1;align=center;verticalAlign=middle;resizable=0;points=[];autosize=1;rotation=270;" parent="1" vertex="1">
          <mxGeometry x="976" y="650" width="73" height="18" as="geometry" />
        </mxCell>
        <mxCell id="qeWXeYSW7fMDMJwoB-ZM-61" value="1" style="text;html=1;align=center;verticalAlign=middle;resizable=0;points=[];autosize=1;" parent="1" vertex="1">
          <mxGeometry x="1007" y="604" width="16" height="18" as="geometry" />
        </mxCell>
        <mxCell id="qeWXeYSW7fMDMJwoB-ZM-62" value="0..*" style="text;html=1;align=center;verticalAlign=middle;resizable=0;points=[];autosize=1;" parent="1" vertex="1">
          <mxGeometry x="989" y="691" width="28" height="18" as="geometry" />
        </mxCell>
        <mxCell id="_aKagx4z53fhF-iL35Nk-3" value="&lt;&lt;Enumeration&gt;&gt;&#xa;Werktag" style="swimlane;fontStyle=0;childLayout=stackLayout;horizontal=1;startSize=26;fillColor=none;horizontalStack=0;resizeParent=1;resizeParentMax=0;resizeLast=0;collapsible=1;marginBottom=0;" vertex="1" parent="1">
          <mxGeometry x="1152" y="927" width="140" height="123" as="geometry" />
        </mxCell>
        <mxCell id="_aKagx4z53fhF-iL35Nk-5" value="Montag,&#xa;Dienstag,&#xa;Mittwoch,&#xa;Donnerstag,&#xa;Freitag,&#xa;Samstag" style="text;strokeColor=none;fillColor=none;align=left;verticalAlign=top;spacingLeft=4;spacingRight=4;overflow=hidden;rotatable=0;points=[[0,0.5],[1,0.5]];portConstraint=eastwest;" vertex="1" parent="_aKagx4z53fhF-iL35Nk-3">
          <mxGeometry y="26" width="140" height="97" as="geometry" />
        </mxCell>
      </root>
    </mxGraphModel>
  </diagram>
</mxfile>
